<?xml version="1.0" standalone="no"?>
<!DOCTYPE svg PUBLIC "-//W3C//DTD SVG 20010904//EN"
 "http://www.w3.org/TR/2001/REC-SVG-20010904/DTD/svg10.dtd">
<svg version="1.0" xmlns="http://www.w3.org/2000/svg"
 width="174.000000pt" height="139.000000pt" viewBox="0 0 174.000000 139.000000"
 preserveAspectRatio="xMidYMid meet">

<g transform="translate(0.000000,139.000000) scale(0.100000,-0.100000)"
fill="#000000" stroke="none">
<path d="M612 1237 c-34 -35 -45 -61 -13 -33 14 13 21 14 27 5 4 -7 3 -10 -3
-6 -6 4 -16 0 -23 -9 -7 -8 -20 -12 -29 -9 -8 3 -12 3 -8 -1 4 -4 -1 -13 -11
-21 -15 -11 -14 -12 10 -3 17 6 30 6 33 0 6 -10 -34 -23 -56 -18 -20 4 -91
-63 -84 -79 3 -8 0 -11 -6 -8 -14 9 -37 -12 -55 -49 -15 -30 -15 -31 3 -10 17
20 54 44 68 44 7 0 -53 -79 -79 -103 -11 -10 -26 -15 -33 -13 -10 4 -13 -20
-13 -113 l0 -119 160 3 160 3 0 -134 c0 -74 2 -134 5 -134 2 0 16 5 30 12 52
23 55 44 55 337 l0 271 -26 -10 c-52 -20 -63 -47 -64 -147 0 -99 3 -104 46
-77 28 19 43 11 28 -14 -6 -9 -24 -17 -40 -18 -16 0 -38 -4 -48 -9 -13 -6 -17
-5 -13 2 5 8 -22 10 -86 9 -50 -1 -98 0 -104 2 -9 3 -13 26 -13 71 0 65 1 68
40 106 21 21 37 42 34 47 -3 4 -10 6 -15 3 -5 -3 -6 1 -3 9 3 9 10 13 15 10 5
-3 9 0 9 7 0 7 9 9 23 6 l22 -6 -23 17 c-18 14 -20 20 -10 30 6 6 18 12 25 12
7 0 22 9 34 21 11 11 29 22 40 24 10 2 24 7 29 10 15 9 12 27 -2 19 -10 -6
-10 -4 0 7 16 17 16 32 0 23 -7 -5 -2 5 10 21 13 17 33 33 45 37 16 4 11 6
-19 7 -33 1 -46 -5 -72 -32z m-42 -111 c0 -2 -7 -7 -16 -10 -8 -3 -12 -2 -9 4
6 10 25 14 25 6z m-75 -74 c-3 -3 -11 0 -18 7 -9 10 -8 11 6 5 10 -3 15 -9 12
-12z m-5 -57 c0 -2 -10 -9 -22 -15 -22 -11 -22 -10 -4 4 21 17 26 19 26 11z
m110 -250 c-6 -8 -9 -18 -6 -23 8 -13 -46 -23 -58 -11 -6 6 -4 9 5 9 9 0 26 9
39 20 27 23 38 26 20 5z m130 -255 c-6 -11 -13 -20 -16 -20 -2 0 0 9 6 20 6
11 13 20 16 20 2 0 0 -9 -6 -20z"/>
<path d="M735 1255 c-33 -17 -59 -50 -50 -65 4 -6 82 -10 187 -10 l181 0 81
-78 c85 -81 152 -122 212 -127 45 -4 48 -9 -120 163 l-130 132 -166 0 c-126 0
-172 -4 -195 -15z m55 -20 c-7 -8 -20 -15 -29 -15 -13 1 -13 3 3 15 26 19 42
19 26 0z m90 -20 c0 -2 -10 -9 -22 -15 -22 -11 -22 -10 -4 4 21 17 26 19 26
11z m-140 -9 c0 -2 -7 -7 -16 -10 -8 -3 -12 -2 -9 4 6 10 25 14 25 6z"/>
<path d="M589 1101 c-25 -20 -29 -21 -56 -21 -15 0 -16 -2 -3 -10 21 -14 23
-13 60 20 37 33 36 41 -1 11z"/>
<path d="M1080 999 c-29 -12 -100 -78 -100 -94 0 -5 5 -3 10 5 9 13 10 13 10
0 0 -9 -16 -22 -36 -29 -19 -7 -34 -15 -31 -17 2 -3 17 0 33 6 26 9 27 9 11
-4 -10 -8 -18 -16 -17 -18 5 -12 -15 -38 -27 -34 -9 4 -15 -4 -19 -24 -4 -16
-12 -31 -20 -34 -8 -3 -14 -12 -14 -20 0 -7 -7 -17 -16 -20 -8 -3 -13 -2 -10
3 3 5 -6 11 -20 14 -21 4 -1 -21 92 -114 65 -65 132 -125 149 -134 32 -15 85
-9 92 11 2 5 -37 49 -87 98 -49 49 -88 92 -85 95 3 2 48 4 99 3 75 -1 95 1
100 13 3 8 11 15 18 14 10 0 10 -2 1 -6 -32 -12 -9 -25 42 -21 l55 3 1 -30 c3
-93 -2 -109 -44 -153 -39 -40 -40 -43 -14 -33 39 15 39 14 12 -13 -27 -27 -73
-47 -60 -26 5 8 4 11 -3 7 -14 -10 -8 -40 9 -45 11 -3 11 -1 -1 8 -12 9 -11
10 6 5 14 -3 30 3 48 20 15 14 32 25 37 25 6 0 8 4 5 9 -4 5 2 7 12 4 11 -3
31 7 50 25 l32 30 0 126 c0 69 -3 127 -7 127 -5 1 -65 3 -135 4 -125 3 -134 1
-129 -28 1 -4 -8 -3 -20 4 -12 6 -19 7 -15 1 3 -5 -4 -10 -17 -10 -12 0 -37
-2 -56 -5 l-33 -5 28 25 29 24 -27 -6 c-37 -7 -35 6 5 46 l32 33 -37 -23 c-21
-12 -38 -18 -38 -12 0 6 24 22 54 35 29 13 57 30 62 37 6 12 5 12 -9 0 -10 -7
-31 -15 -49 -17 l-31 -4 53 50 c29 28 57 50 61 50 5 0 9 7 9 15 0 17 -14 18
-50 4z m-157 -307 c-2 -6 4 -9 12 -6 8 4 13 9 10 13 -2 4 2 8 10 8 12 0 12 -4
-2 -20 -10 -10 -26 -23 -36 -28 -15 -9 -17 -6 -13 16 4 22 3 25 -10 15 -8 -8
-14 -8 -14 -2 0 12 20 22 35 17 6 -1 9 -7 8 -13z m467 -140 c0 -18 -23 -36
-67 -53 -24 -9 -24 -8 5 21 17 16 36 30 42 30 6 0 8 5 5 10 -3 6 -1 10 4 10 6
0 11 -8 11 -18z"/>
<path d="M1140 996 c0 -2 7 -7 16 -10 8 -3 12 -2 9 4 -6 10 -25 14 -25 6z"/>
<path d="M1110 935 c-14 -8 -20 -14 -14 -15 5 0 19 7 30 15 24 18 16 19 -16 0z"/>
<path d="M1050 779 c0 -5 5 -7 10 -4 6 3 10 8 10 11 0 2 -4 4 -10 4 -5 0 -10
-5 -10 -11z"/>
<path d="M360 505 c0 -14 203 -210 213 -207 7 2 9 0 4 -4 -4 -4 9 -25 30 -46
l37 -38 119 0 c67 0 127 5 139 11 15 8 19 8 14 0 -16 -26 35 -8 102 36 67 43
87 65 45 49 -10 -4 -99 -7 -198 -7 l-181 0 -79 78 c-76 75 -156 129 -175 118
-5 -3 -11 -1 -15 5 -6 10 -55 14 -55 5z m150 -59 c0 -2 -7 -7 -16 -10 -8 -3
-12 -2 -9 4 6 10 25 14 25 6z m374 -200 c-6 -15 -34 -31 -34 -19 0 5 30 32 37
33 1 0 0 -6 -3 -14z m-149 -16 c-3 -5 -12 -10 -18 -10 -7 0 -6 4 3 10 19 12
23 12 15 0z"/>
<path d="M1296 435 c-14 -13 -26 -22 -26 -19 0 3 -12 -3 -27 -14 -16 -10 -43
-24 -61 -32 -50 -20 -87 -51 -71 -61 10 -6 5 -11 -15 -19 -22 -8 -26 -13 -17
-24 13 -15 1 -29 -40 -45 -22 -9 -20 -10 16 -10 36 -1 46 5 95 55 36 37 48 54
34 50 -13 -4 -26 -1 -34 9 -10 12 -5 18 35 35 58 25 67 25 35 0 -14 -11 -20
-20 -13 -20 18 0 44 30 37 42 -4 6 -2 8 3 5 6 -4 30 11 54 33 24 22 39 40 33
40 -6 0 -23 -11 -38 -25z"/>
<path d="M1135 378 c-19 -19 -23 -27 -10 -20 29 16 55 38 55 46 0 13 -16 4
-45 -26z"/>
</g>
</svg>
